<svg width="20" height="20" viewBox="0 0 20 20" fill="none" xmlns="http://www.w3.org/2000/svg">
<path d="M5.44014 0C5.8845 0 6.29393 0.240999 6.50966 0.629538L8.00597 3.32492C8.20188 3.67784 8.21112 4.1047 8.03056 4.46575L6.58905 7.34885C6.58905 7.34885 7.0068 9.49657 8.75511 11.2449C10.5035 12.9932 12.644 13.4037 12.644 13.4037L15.5266 11.9625C15.8879 11.7818 16.3151 11.7911 16.6681 11.9874L19.3711 13.4902C19.7593 13.7061 20 14.1153 20 14.5594V17.6625C20 19.2428 18.5321 20.3842 17.0348 19.8789C13.9595 18.8413 9.18583 16.8656 6.16017 13.8398C3.1345 10.8142 1.15871 6.04049 0.121041 2.96521C-0.384187 1.46785 0.75719 0 2.33747 0H5.44014Z" fill="#0C514A"/>
</svg>
